PathFileType	4	(X/Y/Z)	C:\Users\Basilio\Documents\Thesis Gigler\squatting_fais\c3dfiles\054\SLS_back_pre2\markers_experimental.trc
DataRate	CameraRate	NumFrames	NumMarkers	Units	OrigDataRate	OrigDataStartFrame	OrigNumFrames
200.000000	200.000000	4	61	mm	200.000000	383	1535
Frame#	Time	FHD			LBHD			RBHD			C7			T10			CLAV			LSHO			LUUPA			LMUPA			LDUPA			LLEP			LMEP			LRAD			LUL			LRFIN			RSHO			RUPA1			RMUPA			RDUPA			RLEP			RMEP			RRAD			RUL			RUFIN			LASI			RASI			USACR			LSACR			RSACR			LTHI1			LTHI2			LTHI3			LTHI4			LLFC			LMFC			LTIB1			LTIB2			LTIB3			LTIB4			LLMAL			LMMAL			LHEE			LMT1			LMT2			LMT5			RTHI			RTHI2			RTHI3			RTHI4			RLFC			RMFC			RTIB1			RTIB2			RTIB3			RTIB4			RLMAL			RMMAL			RHEE			RMT1			RMT2			RMT5			
		X1	Y1	Z1	X2	Y2	Z2	X3	Y3	Z3	X4	Y4	Z4	X5	Y5	Z5	X6	Y6	Z6	X7	Y7	Z7	X8	Y8	Z8	X9	Y9	Z9	X10	Y10	Z10	X11	Y11	Z11	X12	Y12	Z12	X13	Y13	Z13	X14	Y14	Z14	X15	Y15	Z15	X16	Y16	Z16	X17	Y17	Z17	X18	Y18	Z18	X19	Y19	Z19	X20	Y20	Z20	X21	Y21	Z21	X22	Y22	Z22	X23	Y23	Z23	X24	Y24	Z24	X25	Y25	Z25	X26	Y26	Z26	X27	Y27	Z27	X28	Y28	Z28	X29	Y29	Z29	X30	Y30	Z30	X31	Y31	Z31	X32	Y32	Z32	X33	Y33	Z33	X34	Y34	Z34	X35	Y35	Z35	X36	Y36	Z36	X37	Y37	Z37	X38	Y38	Z38	X39	Y39	Z39	X40	Y40	Z40	X41	Y41	Z41	X42	Y42	Z42	X43	Y43	Z43	X44	Y44	Z44	X45	Y45	Z45	X46	Y46	Z46	X47	Y47	Z47	X48	Y48	Z48	X49	Y49	Z49	X50	Y50	Z50	X51	Y51	Z51	X52	Y52	Z52	X53	Y53	Z53	X54	Y54	Z54	X55	Y55	Z55	X56	Y56	Z56	X57	Y57	Z57	X58	Y58	Z58	X59	Y59	Z59	X60	Y60	Z60	X61	Y61	Z61	

384	1.915	-136.3421325683594	1782.3642578125	-1079.41796875	-296.0812988281251	1728.581909179688	-1153.109619140625	-317.1100463867188	1731.960815429688	-1014.27490234375	-348.7926025390626	1564.128540039063	-1069.14111328125	-393.3304138183595	1237.452270507813	-1059.320678710938	-207.0357055664063	1500.303100585938	-1067.53076171875	-276.6794128417969	1544.921142578125	-1227.46484375	-210.4635620117188	1358.196411132813	-1367.01806640625	-165.5383758544922	1376.047973632813	-1369.826782226563	-157.4920196533203	1321.15185546875	-1391.948974609375	-106.5001373291016	1298.6396484375	-1405.3701171875	-118.7702331542969	1241.591064453125	-1347.97705078125	152.0508422851563	1246.23388671875	-1355.178955078125	145.7291259765625	1196.876953125	-1416.093627929688	240.8843078613282	1232.025390625	-1383.139404296875	-274.3798522949219	1552.207885742188	-909.9595336914065	-226.1307830810547	1354.401977539063	-764.1660156250001	-177.9624786376953	1357.419799804688	-766.4208984375001	-185.0073699951172	1301.544189453125	-743.6628417968751	-150.8113861083985	1269.393920898438	-735.6558837890626	-170.0311431884766	1221.659545898438	-802.5209960937502	94.54236602783205	1296.586669921875	-881.1400146484377	106.0400314331055	1256.291625976563	-813.5542602539065	177.9867401123047	1303.296142578125	-887.828552246094	-212.2659149169922	1046.75048828125	-1160.119140625	-238.7358703613282	1053.253051757813	-909.5904541015627	-400.9929504394532	1155.836059570313	-1056.019165039063	-408.1348266601564	1124.863159179688	-1084.747192382813	-413.6133422851564	1124.205688476563	-1027.69873046875	-295.5461730957032	807.889099121094	-1233.8505859375	-268.9931030273438	728.9104614257814	-1219.161254882813	-221.7223510742188	732.3164062500001	-1205.258911132813	-301.3208312988282	680.1774291992189	-1200.220581054688	-310.5246582031251	525.7319946289064	-1161.828979492188	-301.2309570312501	537.7639160156251	-1023.796691894531	-278.8419189453126	368.8813171386719	-1088.751953125	-323.0390319824219	316.3171997070313	-1142.9306640625	-286.1880798339844	316.4512634277344	-1115.601318359375	-298.4550476074219	244.3479309082032	-1072.90625	-360.7892456054688	109.6236572265625	-1100.79736328125	-331.4200134277344	132.6269226074219	-1010.741088867188	-428.2861938476564	100.8203735351563	-1041.916381835938	-217.3021545410157	55.04397583007814	-1019.500732421875	-208.2567596435547	55.95877838134767	-1068.198852539063	-260.5687255859376	40.0860710144043	-1120.296630859375	-342.1250305175782	763.0916137695314	-816.581481933594	-303.9660034179688	708.5379028320314	-805.0025024414065	-270.6064453125001	707.2411499023439	-806.7723388671877	-332.6941833496094	630.4616088867189	-817.3399047851565	-351.6909790039063	586.9095458984376	-826.3902587890627	-282.2038574218751	539.8473510742189	-941.4910278320315	-432.1173706054689	523.0231933593751	-864.4560546875002	-507.7938537597657	598.7177124023439	-868.5495605468752	-513.0808715820314	553.6594848632814	-875.7400512695315	-550.6725463867189	539.5787963867189	-918.1675415039065	-711.5250244140626	608.8617553710939	-962.8418579101565	-672.4545288085939	568.9338989257814	-1038.622802734375	-678.7498779296876	674.4423828125001	-1013.210571289063	-796.7871093750002	504.0784912109376	-1088.600830078125	-818.8687133789065	497.8162231445314	-1044.043701171875	-832.7019042968752	549.3629760742189	-1000.357238769531	
385	1.92	-135.9891815185547	1782.141235351563	-1079.062377929688	-295.6612854003907	1728.700927734375	-1152.921752929688	-316.8804626464844	1731.977172851563	-1014.157958984375	-348.5676879882813	1564.123657226563	-1069.141479492188	-393.1765136718751	1237.428833007813	-1059.472412109375	-206.9745483398438	1500.263305664063	-1067.51904296875	-276.4450683593751	1545.059448242188	-1227.456298828125	-209.8743133544922	1358.505859375	-1367.054809570313	-165.0198364257813	1376.32177734375	-1369.691528320313	-156.8945007324219	1321.463623046875	-1392.029418945313	-105.917221069336	1299.048706054688	-1405.3935546875	-118.2254409790039	1241.895385742188	-1348.124145507813	152.5934448242188	1246.692993164063	-1355.23095703125	146.422119140625	1197.34521484375	-1416.271606445313	241.4620513916016	1232.4326171875	-1383.164306640625	-274.3080139160157	1552.06494140625	-909.9719848632815	-225.8928222656251	1354.254272460938	-764.2866210937501	-177.7475891113282	1357.334350585938	-766.5060424804689	-184.800277709961	1301.422729492188	-743.7341918945314	-150.5401763916016	1269.275268554688	-735.8376464843751	-169.8488006591797	1221.503784179688	-802.5800781250002	94.66595458984376	1296.5771484375	-881.293640136719	106.0929870605469	1256.30029296875	-813.7540283203127	178.082748413086	1303.317626953125	-888.0035400390627	-212.1290588378907	1046.717041015625	-1160.179931640625	-238.8007965087891	1053.21923828125	-909.7485351562502	-400.9396057128907	1155.825317382813	-1056.2109375	-408.180389404297	1124.87158203125	-1084.98388671875	-413.6913452148439	1124.182006835938	-1027.819702148438	-295.2942810058594	807.8445434570315	-1234.030151367188	-268.7295532226563	728.8744506835939	-1219.144287109375	-221.5425720214844	732.3026123046876	-1205.379638671875	-301.0895080566407	680.1173095703126	-1200.338012695313	-310.2514953613282	525.6729125976564	-1161.91015625	-300.9353332519532	537.7916259765626	-1023.8525390625	-278.7712402343751	368.8110656738282	-1088.777099609375	-322.8884277343751	316.3019714355469	-1142.95849609375	-286.1029968261719	316.4106750488282	-1115.642578125	-298.3953552246094	244.2963867187501	-1072.90478515625	-360.8130187988282	109.6545791625977	-1100.798828125	-331.4185180664063	132.6293334960938	-1010.725036621094	-428.2444152832032	100.8366775512696	-1041.918823242188	-217.3219451904297	55.0626907348633	-1019.455383300781	-208.591781616211	55.9297218322754	-1068.3818359375	-260.5521240234376	40.06652069091798	-1120.306274414063	-342.2938842773438	763.1008300781251	-816.6565551757815	-304.1949768066407	708.5324096679689	-805.179626464844	-270.8509826660157	707.2872314453126	-806.939392089844	-332.9149475097657	630.4611816406251	-817.4100341796877	-352.0395202636719	586.8463745117189	-826.4735107421877	-283.8838195800782	539.7568359375001	-941.1077270507815	-432.4885559082032	522.9855957031251	-864.547790527344	-508.0964965820314	598.5986328125001	-868.6042480468752	-513.5997924804689	553.5481567382814	-875.7463378906252	-550.9545898437501	539.5255737304689	-918.3469238281252	-711.7267456054689	608.6981201171876	-962.9914550781252	-672.7791748046876	568.7341918945314	-1038.776000976563	-678.9464721679689	674.3936157226564	-1013.10791015625	-797.014831542969	503.9899291992189	-1088.98974609375	-819.4275512695315	497.5850219726564	-1044.45556640625	-833.0559692382815	549.2250976562501	-1000.7578125	
386	1.925	-135.5889739990235	1782.02294921875	-1078.701782226563	-295.3275146484376	1728.744140625	-1152.751342773438	-316.4492797851563	1732.022094726563	-1014.032653808594	-348.4706726074219	1564.0849609375	-1069.06787109375	-393.0755310058595	1237.380859375	-1059.618774414063	-206.5811157226563	1500.248168945313	-1067.401245117188	-276.1160583496094	1545.144897460938	-1227.40966796875	-209.4115600585938	1358.768798828125	-1367.017944335938	-164.1620635986328	1376.402954101563	-1368.977661132813	-156.4684295654297	1321.748413085938	-1392.062866210938	-105.4282989501953	1299.408203125	-1405.41552734375	-117.790885925293	1242.288818359375	-1348.221435546875	153.1658782958985	1247.125	-1355.171752929688	147.0715637207032	1197.767578125	-1416.317260742188	242.3589935302735	1232.96533203125	-1383.11767578125	-274.1636047363282	1551.991577148438	-909.9561157226565	-225.6153717041016	1354.023803710938	-764.4226074218751	-177.43896484375	1357.242431640625	-766.6427001953126	-184.6568298339844	1301.316040039063	-743.7828979492189	-150.3244171142578	1269.208374023438	-735.9810791015626	-169.730941772461	1221.4150390625	-802.7224731445315	94.83735656738283	1296.560668945313	-881.4959716796877	106.2962341308594	1256.268310546875	-813.9783325195315	178.169921875	1303.3232421875	-888.2034301757815	-212.0581207275391	1046.672485351563	-1160.262451171875	-238.8520202636719	1053.20263671875	-909.8455200195315	-400.8512268066407	1155.843872070313	-1056.397827148438	-408.1687622070314	1124.923217773438	-1085.200439453125	-413.6475524902345	1124.223022460938	-1028.008911132813	-295.0740966796876	807.785827636719	-1234.166748046875	-268.6892089843751	728.8584594726564	-1219.58251953125	-221.3152618408204	732.2410888671876	-1205.471313476563	-300.9595947265626	680.0739135742189	-1200.441528320313	-310.0690307617188	525.6378173828126	-1162.006713867188	-300.5148315429688	537.8333740234376	-1023.924194335938	-278.7436828613282	368.7982177734376	-1088.824829101563	-322.8988952636719	316.2760620117188	-1142.987182617188	-286.0532226562501	316.3871154785157	-1115.684936523438	-298.3861694335938	244.2663116455079	-1072.944580078125	-360.7878112792969	109.6576919555664	-1100.802001953125	-331.3931274414063	132.6187133789063	-1010.782775878906	-428.233123779297	100.8160781860352	-1041.937133789063	-217.2866668701172	55.0372772216797	-1019.495300292969	-208.5484161376954	55.95998764038087	-1068.37158203125	-260.5463867187501	40.07410430908204	-1120.293334960938	-342.5319213867188	763.1088256835939	-816.716491699219	-304.3961181640626	708.5213012695314	-805.2701416015627	-271.1024475097657	707.3425903320314	-807.1027832031252	-333.3305969238282	630.4451293945314	-817.3957519531252	-352.4984741210938	586.8416137695314	-826.4734497070315	-284.1868591308594	539.7295532226564	-941.1435546875002	-432.7467346191407	522.9384765625001	-864.6334228515627	-508.405242919922	598.4495239257814	-868.6301269531252	-513.7953491210939	553.4415283203126	-875.8750610351565	-551.6276245117189	539.3179931640626	-918.2998657226565	-712.1990966796876	608.3407592773439	-963.1174316406252	-673.0618286132814	568.4873046875001	-1038.906982421875	-679.2677612304689	674.1485595703126	-1013.081298828125	-797.232116699219	503.9226989746095	-1089.356079101563	-819.7875976562502	497.4200134277345	-1044.779052734375	-833.3818969726565	549.0534057617189	-1001.01416015625	
387	1.93	-135.3310241699219	1781.905883789063	-1078.302490234375	-294.9427185058594	1728.798828125	-1152.602416992188	-316.2925415039063	1731.964965820313	-1013.814208984375	-348.2544860839844	1564.07666015625	-1069.101806640625	-393.0108032226564	1237.360717773438	-1059.783081054688	-206.2140808105469	1500.22802734375	-1067.409301757813	-275.9580383300782	1545.35498046875	-1227.436279296875	-209.1282043457032	1359.000122070313	-1366.866943359375	-163.5285186767578	1376.643432617188	-1368.833374023438	-156.0401153564453	1322.069091796875	-1392.028686523438	-104.76513671875	1299.748291015625	-1405.443969726563	-117.2823944091797	1242.695678710938	-1348.255859375	153.6267547607422	1247.573486328125	-1355.04296875	147.64794921875	1198.231201171875	-1416.205810546875	242.9089508056641	1233.574584960938	-1383.070678710938	-274.0026550292969	1551.882934570313	-910.0008544921877	-225.4704589843751	1353.903930664063	-764.5266723632814	-177.3309020996094	1357.143920898438	-766.7232666015626	-184.4214019775391	1301.218383789063	-743.9339599609376	-149.9772338867188	1269.043701171875	-736.1282958984376	-169.6010284423828	1221.294677734375	-802.8477783203127	94.97476196289064	1296.59326171875	-881.7427368164065	106.5844192504883	1256.227661132813	-814.2923583984377	178.2652130126953	1303.388427734375	-888.4597778320315	-211.9474182128907	1046.646606445313	-1160.295166015625	-238.935775756836	1053.19140625	-909.971374511719	-400.770721435547	1155.849853515625	-1056.6474609375	-408.1554565429689	1124.920288085938	-1085.416015625	-413.6097717285157	1124.253173828125	-1028.235961914063	-294.8833312988282	807.745788574219	-1234.322143554688	-268.6089477539063	728.8619995117189	-1219.684204101563	-221.201889038086	732.2664794921876	-1205.53955078125	-300.7625427246094	680.0100708007814	-1200.546997070313	-309.8203125000001	525.6466064453126	-1162.0908203125	-300.2348937988282	537.9003906250001	-1023.981018066406	-278.6682739257813	368.7982482910157	-1088.946044921875	-322.7528381347657	316.2245788574219	-1143.052490234375	-285.9926452636719	316.3594055175782	-1115.724731445313	-298.2835083007813	244.2330627441407	-1072.958984375	-360.7444458007813	109.5759658813477	-1100.83251953125	-331.3808593750001	132.6289367675782	-1010.775024414063	-428.2236328125001	100.8421325683594	-1041.962768554688	-217.3125000000001	55.04833984375001	-1019.46337890625	-208.3459472656251	55.94272232055665	-1068.19677734375	-260.5959777832032	40.11960983276368	-1120.321044921875	-342.8822937011719	763.1207885742189	-816.8020629882815	-304.7154235839844	708.4635620117189	-805.3255615234377	-271.3577880859376	707.3895874023439	-807.1441650390627	-333.5980834960938	630.4385375976564	-817.4663085937502	-353.0235900878907	587.0036621093751	-826.4818115234377	-282.9465026855469	539.8001708984376	-941.707214355469	-432.9951477050782	522.8804931640626	-864.8507080078127	-508.8973999023439	598.4404296875001	-868.6099853515627	-514.1971435546876	553.3193359375001	-875.912536621094	-551.8899536132814	539.1774902343751	-918.4793701171877	-712.4776611328126	608.1012573242189	-963.3460083007815	-673.4268188476564	568.3423461914064	-1038.999267578125	-679.3941650390626	673.8723144531251	-1013.218566894531	-797.431579589844	503.8475036621095	-1089.676513671875	-819.9094238281252	497.1473693847657	-1044.891235351563	-833.5805664062502	548.8533325195314	-1001.309020996094	
